<svg class="taboo-explain" viewBox="0 0 600 360" preserveAspectRatio="xMidYMid meet" aria-hidden="true" xmlns="http://www.w3.org/2000/svg">
  <rect x="200" y="130" rx="18" ry="18" width="200" height="80" class="term-box" />
  <text x="300" y="180" text-anchor="middle" class="term-text">TERM</text>

  <g class="forbidden-group">
    <rect x="60" y="60" rx="12" ry="12" width="120" height="44" />
    <text x="120" y="88" text-anchor="middle">•••••</text>

    <rect x="420" y="60" rx="12" ry="12" width="120" height="44" />
    <text x="480" y="88" text-anchor="middle">•••••</text>

    <rect x="60" y="260" rx="12" ry="12" width="120" height="44" />
    <text x="120" y="288" text-anchor="middle">•••••</text>

    <rect x="420" y="260" rx="12" ry="12" width="120" height="44" />
    <text x="480" y="288" text-anchor="middle">•••••</text>
  </g>

  <g class="arrows">
    <path d="M180 100 L240 140" />
    <path d="M420 100 L360 140" />
    <path d="M180 260 L240 220" />
    <path d="M420 260 L360 220" />
  </g>

  <g class="cross">
    <g transform="translate(120, 82)">
      <line x1="-10" y1="-10" x2="10" y2="10" />
      <line x1="10" y1="-10" x2="-10" y2="10" />
    </g>
    <g transform="translate(480, 82)">
      <line x1="-10" y1="-10" x2="10" y2="10" />
      <line x1="10" y1="-10" x2="-10" y2="10" />
    </g>
    <g transform="translate(120, 282)">
      <line x1="-10" y1="-10" x2="10" y2="10" />
      <line x1="10" y1="-10" x2="-10" y2="10" />
    </g>
    <g transform="translate(480, 282)">
      <line x1="-10" y1="-10" x2="10" y2="10" />
      <line x1="10" y1="-10" x2="-10" y2="10" />
    </g>
  </g>
</svg>